<?xml version="1.0" encoding="UTF-8"?>
<svg version="1.1" xmlns="http://www.w3.org/2000/svg" width="500" height="500">
<path d="M0 0 C16.68599197 15.82492962 25.34214102 36.83777143 28.11328125 59.46875 C28.11328125 64.74875 28.11328125 70.02875 28.11328125 75.46875 C3.36328125 75.46875 -21.38671875 75.46875 -46.88671875 75.46875 C-47.87671875 69.52875 -48.86671875 63.58875 -49.88671875 57.46875 C-55.27305368 44.97703708 -61.44230569 37.24651523 -74.32421875 32.09375 C-89.11478015 29.49891467 -104.09927006 29.66212234 -116.88671875 38.46875 C-128.63838074 48.90823955 -132.93519651 64.13237102 -133.88671875 79.46875 C-134.02780916 84.26358437 -134.07254503 89.05338786 -134.07202148 93.85009766 C-134.07419376 96.06823344 -134.09236414 98.28585891 -134.11132812 100.50390625 C-134.18279872 118.41077661 -132.95539649 138.3843583 -120.2265625 152.28125 C-111.11962328 160.57914451 -100.51588638 162.82474336 -88.51171875 162.78125 C-87.63 162.79736328 -86.74828125 162.81347656 -85.83984375 162.83007812 C-74.65611234 162.83827734 -64.58697961 159.31864952 -56.1015625 151.91015625 C-49.50168746 144.87141483 -46.75573729 136.4864368 -45.74609375 127.08984375 C-45.61823486 125.98618469 -45.61823486 125.98618469 -45.48779297 124.86022949 C-45.28065731 123.06383821 -45.08273255 121.26638884 -44.88671875 119.46875 C-44.32756271 119.46288376 -43.76840668 119.45701752 -43.19230652 119.45097351 C-37.26877167 119.38606186 -31.34573233 119.30141978 -25.42260742 119.20629883 C-23.22443252 119.1734424 -21.02618119 119.14529435 -18.82788086 119.12231445 C-5.54692139 118.9798344 7.17126881 118.17997673 20.24090576 115.79837036 C41.03879202 112.13702849 63.44822463 113.77683961 84.11328125 117.46875 C84.88027344 117.60265137 85.64726562 117.73655273 86.4375 117.87451172 C113.15524744 122.75109173 138.68804852 136.83753546 155.21484375 158.6640625 C171.80200285 183.16937163 177.34124907 209.53558271 177.36328125 238.78125 C177.36395599 239.58454742 177.36463074 240.38784485 177.36532593 241.21548462 C177.34892453 253.510557 176.93522375 265.44771935 174.11328125 277.46875 C173.94699219 278.18933594 173.78070313 278.90992188 173.609375 279.65234375 C166.84097069 307.7788239 150.84366347 331.15243128 126.11328125 346.46875 C107.97755824 357.08098559 87.95903469 361.85864428 67.2734375 364.07421875 C64.09383845 364.36619465 64.09383845 364.36619465 61.11328125 365.46875 C58.31447489 365.56273161 55.54091709 365.59904129 52.74214172 365.58900452 C51.44585249 365.59028615 51.44585249 365.59028615 50.12337559 365.59159368 C47.21675104 365.59324572 44.31018372 365.58773159 41.40356445 365.58227539 C39.32433066 365.58199343 37.24509677 365.58215142 35.16586304 365.5827179 C29.51125367 365.58300554 23.85666539 365.57711415 18.20206094 365.57014394 C12.29634472 365.56390489 6.39062806 365.56330616 0.48490906 365.56211853 C-10.70289978 365.55900685 -21.89069888 365.55079564 -33.07850343 365.54076904 C-45.81351683 365.52960287 -58.54853069 365.52409618 -71.28354776 365.51907361 C-97.48461016 365.5086129 -123.68566391 365.49101659 -149.88671875 365.46875 C-149.88671875 364.80875 -149.88671875 364.14875 -149.88671875 363.46875 C-170.34671875 363.46875 -190.80671875 363.46875 -211.88671875 363.46875 C-211.90653809 356.5193335 -211.92635742 349.56991699 -211.94677734 342.40991211 C-212.01169781 320.12939237 -212.08623775 297.84891161 -212.16677036 275.56844324 C-212.179288 272.10283937 -212.19172096 268.63723521 -212.20410156 265.17163086 C-212.20656756 264.48174289 -212.20903355 263.79185492 -212.21157427 263.08106125 C-212.25120898 251.93644962 -212.28399723 240.79182796 -212.31421857 229.64718729 C-212.34542315 218.19666774 -212.38421509 206.74619664 -212.42950881 195.29572302 C-212.45468714 188.87053578 -212.4764938 182.44537807 -212.49006271 176.02015495 C-212.50296197 169.96355063 -212.52510013 163.90704805 -212.55410194 157.85050011 C-212.56311656 155.63632055 -212.56885352 153.42212464 -212.57093239 151.2079277 C-212.58279231 140.48771297 -212.74456962 130.02780599 -214.43360615 119.42633438 C-215.06074128 115.33285946 -215.19194249 111.30969507 -215.1875 107.17578125 C-215.19309937 106.38509247 -215.19869873 105.59440369 -215.20446777 104.77975464 C-215.2161465 102.2800466 -215.21022376 99.78095489 -215.19921875 97.28125 C-215.19739594 96.42157623 -215.19557312 95.56190247 -215.19369507 94.67617798 C-215.14865578 82.0609225 -214.7697312 69.80243187 -211.88671875 57.46875 C-211.64526123 56.36176758 -211.64526123 56.36176758 -211.39892578 55.23242188 C-207.69512606 38.6240289 -200.83590181 22.60339874 -189.88671875 9.46875 C-189.25121094 8.68371094 -188.61570312 7.89867187 -187.9609375 7.08984375 C-180.61813541 -1.60674149 -171.82116759 -8.07325191 -161.88671875 -13.53125 C-160.984375 -14.03527344 -160.08203125 -14.53929687 -159.15234375 -15.05859375 C-111.93681483 -40.13386789 -40.44757642 -35.46688704 0 0 Z M15.11328125 182.46875 C14.06140625 183.190625 13.00953125 183.9125 11.92578125 184.65625 C-3.07561857 199.65764982 -4.05982225 219.48542506 -4.13671875 239.46875 C-4.08811536 259.31704415 -2.97090989 278.05260384 11.11328125 293.46875 C22.4337409 303.41815562 36.24481632 306.88883933 51.0546875 306.31640625 C65.76165094 304.73257942 77.99658392 299.14984223 87.515625 287.72265625 C97.08934426 274.21645574 97.62659463 258.64629323 97.55932617 242.73413086 C97.55082769 239.67297796 97.57963497 236.61370346 97.61132812 233.55273438 C97.67655903 215.65696592 95.47909343 199.27713785 82.73828125 185.53125 C71.28578104 175.09224538 56.84479598 172.65171137 41.8671875 173.15234375 C31.53274708 173.72093158 23.5849413 176.55227646 15.11328125 182.46875 Z M-133.88671875 217.46875 C-133.88671875 245.18875 -133.88671875 272.90875 -133.88671875 301.46875 C-113.42671875 301.46875 -92.96671875 301.46875 -71.88671875 301.46875 C-74.85671875 292.55875 -74.85671875 292.55875 -77.88671875 283.46875 C-83.13304576 263.60765488 -83.26133008 242.89371239 -82.88671875 222.46875 C-83.90487671 222.439021 -83.90487671 222.439021 -84.94360352 222.40869141 C-101.65928169 221.89653944 -117.40652917 220.46514811 -133.88671875 217.46875 Z " fill="#95A68C" transform="translate(286.88671875,76.53125)"/>
<path d="M0 0 C0.33 0 0.66 0 1 0 C1.18433594 0.92296875 1.36867188 1.8459375 1.55859375 2.796875 C5.21634269 19.73628735 12.28835166 35.35799315 23 49 C23.58394531 49.75410156 24.16789062 50.50820313 24.76953125 51.28515625 C36.38204805 65.3996673 53.15369727 73.85714928 70 80 C72.64 80.99 75.28 81.98 78 83 C78 110.72 78 138.44 78 167 C98.79 167 119.58 167 141 167 C145.455 174.92 145.455 174.92 150 183 C168.88935988 208.36571184 196.09317361 221.84886227 227 227 C236.68194512 228.2259503 246.44369444 228.32006755 256.1875 228.5625 C257.82357626 228.60579788 259.45964409 228.6494153 261.09570312 228.69335938 C265.06371468 228.79925341 269.03181481 228.90083523 273 229 C273 229.66 273 230.32 273 231 C203.37 231 133.74 231 62 231 C62 230.34 62 229.68 62 229 C41.54 229 21.08 229 0 229 C0 153.43 0 77.86 0 0 Z " fill="#000000" transform="translate(75,211)"/>
</svg>
